
          <svg data-logo="logo" xmlns="http://www.w3.org/2000/svg" viewBox="0 0 165 43">
            <g id="logogram" transform="translate(0, 1.5) rotate(0)"><path d="M16.5877 36.7446C11.9889 41.3226 4.20028 41.3044 2.02513 35.2029C1.59927 34.0084 1.25878 32.7801 1.00835 31.5268C-0.0141606 26.4094 0.510628 21.1053 2.51635 16.2849C4.52207 11.4646 7.91864 7.34456 12.2765 4.44587C16.6345 1.54717 21.758 -2.23498e-07 26.9992 0C32.2404 2.23498e-07 37.3639 1.54717 41.7217 4.44587C46.0797 7.34456 49.4762 11.4646 51.482 16.285C53.4877 21.1053 54.0124 26.4094 52.99 31.5268C52.7396 32.7801 52.3991 34.0084 51.9731 35.2029C49.798 41.3044 42.0094 41.3226 37.4106 36.7446L30.3117 29.6777C29.6334 29.0026 29.7035 27.8891 29.8906 26.9527C30.0043 26.3835 29.9459 25.7934 29.7227 25.2571C29.4996 24.7209 29.1218 24.2625 28.637 23.9401C28.1522 23.6177 27.5823 23.4455 26.9992 23.4455C26.4161 23.4455 25.8462 23.6177 25.3614 23.9401C24.8764 24.2625 24.4987 24.7209 24.2755 25.2571C24.0524 25.7934 23.994 26.3835 24.1078 26.9527C24.2949 27.8891 24.3648 29.0026 23.6866 29.6777L16.5877 36.7446Z" fill="url(#paint0_linear_5557_2015)"/></g>
            <g id="logotype" transform="translate(60, 1)"><path fill="#111111" d="M15.07 12.86L7.28 12.86L7.28 8.54L28.08 8.54L28.08 12.86L20.30 12.86L20.30 34L15.07 34L15.07 12.86ZM34.40 34L29.27 34L29.27 14.89L34.23 14.89L34.23 18.23L34.44 18.23Q34.97 16.45 36.20 15.54Q37.44 14.64 39.05 14.64L39.05 14.64Q39.44 14.64 39.90 14.68Q40.35 14.72 40.71 14.81L40.71 14.81L40.71 19.39Q40.37 19.27 39.72 19.20Q39.07 19.13 38.49 19.13L38.49 19.13Q37.32 19.13 36.38 19.64Q35.44 20.14 34.92 21.04Q34.40 21.93 34.40 23.13L34.40 23.13L34.40 34ZM46.38 34L41.25 34L41.25 14.89L46.38 14.89L46.38 34ZM43.82 12.40L43.82 12.40Q42.65 12.40 41.83 11.63Q41.01 10.86 41.01 9.77L41.01 9.77Q41.01 8.67 41.83 7.90Q42.65 7.13 43.82 7.13L43.82 7.13Q44.98 7.13 45.81 7.90Q46.64 8.66 46.64 9.77L46.64 9.77Q46.64 10.86 45.81 11.63Q44.98 12.40 43.82 12.40ZM53.59 41.14L48.46 41.14L48.46 14.89L53.50 14.89L53.50 18.11L53.74 18.11Q54.10 17.35 54.76 16.55Q55.42 15.75 56.49 15.20Q57.57 14.65 59.19 14.65L59.19 14.65Q61.31 14.65 63.07 15.75Q64.83 16.84 65.89 19.03Q66.94 21.22 66.94 24.48L66.94 24.48Q66.94 27.66 65.91 29.86Q64.89 32.05 63.13 33.19Q61.36 34.32 59.16 34.32L59.16 34.32Q57.61 34.32 56.53 33.79Q55.45 33.27 54.78 32.49Q54.10 31.71 53.74 30.94L53.74 30.94L53.59 30.94L53.59 41.14ZM57.59 30.21L57.59 30.21Q58.92 30.21 59.84 29.47Q60.75 28.74 61.22 27.44Q61.69 26.14 61.69 24.46L61.69 24.46Q61.69 22.79 61.22 21.51Q60.75 20.23 59.84 19.49Q58.94 18.76 57.59 18.76L57.59 18.76Q56.27 18.76 55.35 19.47Q54.43 20.17 53.95 21.45Q53.47 22.72 53.47 24.46L53.47 24.46Q53.47 26.19 53.96 27.48Q54.44 28.77 55.37 29.49Q56.29 30.21 57.59 30.21ZM84.06 34L68.11 34L68.11 30.89L77.53 19.17L77.53 19.03L68.40 19.03L68.40 14.89L83.73 14.89L83.73 18.29L74.85 29.73L74.85 29.86L84.06 29.86L84.06 34ZM85.88 40.77L85.88 40.77L87.06 36.91L87.70 37.06Q88.72 37.33 89.52 37.21Q90.33 37.09 90.82 36.56Q91.30 36.03 91.40 35.08L91.40 35.08L91.54 34.05L84.36 14.89L89.82 14.89L93.03 24.81Q93.61 26.69 93.98 28.57Q94.34 30.45 94.82 32.50L94.82 32.50L93.63 32.50Q94.09 30.45 94.55 28.56Q95.01 26.67 95.63 24.81L95.63 24.81L98.98 14.89L104.36 14.89L96.24 36.26Q95.66 37.79 94.75 38.92Q93.85 40.05 92.50 40.67Q91.15 41.28 89.23 41.28L89.23 41.28Q88.21 41.28 87.32 41.14Q86.43 40.99 85.88 40.77Z"/></g>
            <defs xmlns="http://www.w3.org/2000/svg">
<linearGradient id="paint0_linear_5557_2015" x1="51.087" y1="13.1901" x2="4.04948" y2="13.1901" gradientUnits="userSpaceOnUse">
<stop stop-color="#64C2DB"/>
<stop offset="0.510417" stop-color="#7476ED"/>
<stop offset="1" stop-color="#E56F8C"/>
</linearGradient>
</defs>
          </svg>
        